<?xml version="1.0" encoding="utf-8"?>
<!-- Generator: Adobe Illustrator 26.0.2, SVG Export Plug-In . SVG Version: 6.00 Build 0)  -->
<svg version="1.1" id="Layer_1" xmlns="http://www.w3.org/2000/svg" xmlns:xlink="http://www.w3.org/1999/xlink" x="0px" y="0px"
	 viewBox="0 0 1200 1200" style="enable-background:new 0 0 1200 1200;" xml:space="preserve">
<style type="text/css">
	.st0{fill:#B06F42;}
	.st1{fill:#FFFFFF;}
	.st2{fill:#BB7B4C;}
	.st3{fill:#995D36;}
	.st4{fill:#C6B3A6;}
	.st5{fill:#894E2B;}
</style>
<g>
	<polygon class="st0" points="1157.1,535.6 1157.1,492.6 1114.3,492.6 1114.3,449.7 1071.4,449.7 1071.4,406.8 1028.6,406.8 
		1028.6,363.8 985.7,363.8 985.7,320.9 942.9,320.9 900,320.9 900,277.9 814.3,277.9 814.3,235 385.7,235 385.7,277.9 300,277.9 
		300,320.9 257.1,320.9 214.3,320.9 214.3,363.8 171.4,363.8 171.4,406.8 128.6,406.8 128.6,449.7 85.7,449.7 85.7,492.6 
		42.9,492.6 42.9,535.6 0,535.6 0,664.4 42.9,664.4 42.9,707.4 85.7,707.4 85.7,750.3 128.6,750.3 128.6,793.2 171.4,793.2 
		171.4,836.2 214.3,836.2 214.3,879.1 257.1,879.1 300,879.1 300,922.1 385.7,922.1 385.7,965 814.3,965 814.3,922.1 900,922.1 
		900,879.1 942.9,879.1 985.7,879.1 985.7,836.2 1028.6,836.2 1028.6,793.2 1071.4,793.2 1071.4,750.3 1114.3,750.3 1114.3,707.4 
		1157.1,707.4 1157.1,664.4 1200,664.4 1200,535.6 	"/>
	<g id="Eyes">
		<polygon points="514.3,492.6 471.4,492.6 471.4,621.5 514.3,621.5 557.1,621.5 557.1,492.6 		"/>
		<polygon points="771.4,492.6 728.6,492.6 728.6,621.5 771.4,621.5 814.3,621.5 814.3,492.6 		"/>
		<polygon class="st1" points="428.6,492.6 385.7,492.6 385.7,621.5 428.6,621.5 471.4,621.5 471.4,492.6 		"/>
		<polygon class="st1" points="685.7,492.6 642.9,492.6 642.9,621.5 685.7,621.5 728.6,621.5 728.6,492.6 		"/>
	</g>
	<g id="Laces">
		<rect x="471.4" y="277.9" class="st1" width="42.9" height="85.9"/>
		<rect x="600" y="277.9" class="st1" width="42.9" height="85.9"/>
		<rect x="728.6" y="277.9" class="st1" width="42.9" height="85.9"/>
	</g>
	<rect x="42.9" y="664.4" class="st2" width="42.9" height="42.9"/>
	<polygon class="st2" points="42.9,535.6 0,535.6 0,664.4 42.9,664.4 42.9,578.5 85.7,578.5 85.7,492.6 42.9,492.6 	"/>
	<rect x="85.7" y="449.7" class="st2" width="42.9" height="42.9"/>
	<rect x="128.6" y="406.8" class="st2" width="42.9" height="42.9"/>
	<rect x="257.1" y="320.9" class="st2" width="42.9" height="42.9"/>
	<polygon class="st2" points="300,277.9 300,320.9 385.7,320.9 428.6,320.9 428.6,277.9 385.7,277.9 	"/>
	<rect x="85.7" y="707.4" class="st2" width="42.9" height="42.9"/>
	<rect x="385.7" y="235" class="st3" width="42.9" height="42.9"/>
	<rect x="471.4" y="235" class="st4" width="42.9" height="42.9"/>
	<rect x="600" y="235" class="st4" width="42.9" height="42.9"/>
	<rect x="728.6" y="235" class="st4" width="42.9" height="42.9"/>
	<g>
		<rect x="514.3" y="235" class="st5" width="85.7" height="42.9"/>
		<rect x="428.6" y="235" class="st5" width="42.9" height="42.9"/>
		<rect x="771.4" y="235" class="st5" width="42.9" height="42.9"/>
		<rect x="642.9" y="235" class="st5" width="85.7" height="42.9"/>
		<polygon class="st5" points="1157.1,535.6 1157.1,492.6 1114.3,492.6 1114.3,449.7 1071.4,449.7 1071.4,406.8 1028.6,406.8 
			1028.6,363.8 985.7,363.8 985.7,320.9 900,320.9 900,277.9 814.3,277.9 814.3,320.9 857.1,320.9 857.1,363.8 942.9,363.8 
			942.9,406.8 985.7,406.8 985.7,449.7 1028.6,449.7 1028.6,492.6 1071.4,492.6 1071.4,535.6 1114.3,535.6 1114.3,578.5 
			1157.1,578.5 1157.1,621.5 1114.3,621.5 1114.3,664.4 1028.6,664.4 1028.6,707.4 985.7,707.4 985.7,750.3 900,750.3 900,793.2 
			857.1,793.2 857.1,836.2 814.3,836.2 814.3,879.1 728.6,879.1 728.6,922.1 642.9,922.1 642.9,965 814.3,965 814.3,922.1 
			900,922.1 900,879.1 985.7,879.1 985.7,836.2 1028.6,836.2 1028.6,793.2 1071.4,793.2 1071.4,750.3 1114.3,750.3 1114.3,707.4 
			1157.1,707.4 1157.1,664.4 1200,664.4 1200,621.5 1200,578.5 1200,535.6 		"/>
		<polygon class="st5" points="428.6,879.1 385.7,879.1 385.7,836.2 300,836.2 300,793.2 214.3,793.2 214.3,750.3 128.6,750.3 
			128.6,793.2 171.4,793.2 171.4,836.2 214.3,836.2 214.3,879.1 300,879.1 300,922.1 385.7,922.1 385.7,965 471.4,965 471.4,922.1 
			428.6,922.1 		"/>
	</g>
</g>
</svg>
