
<svg id="Layer_1" data-name="Layer 1" xmlns="http://www.w3.org/2000/svg" viewBox="0 0 100 100">
<defs>
<style>.cls-1{fill:#EC5549;}
</style>
</defs>
<polygon class="cls-1" points="85.71 28.57 71.43 28.57 57.14 28.57 57.14 14.29 57.14 0 42.86 0 42.86 14.29 42.86 28.57 28.57 28.57 14.29 28.57 0 28.57 0 42.86 14.29 42.86 14.29 57.14 28.57 57.14 28.57 71.43 14.29 71.43 14.29 85.71 14.29 100 28.57 100 28.57 85.71 42.86 85.71 42.86 71.43 57.14 71.43 57.14 85.71 71.43 85.71 71.43 100 85.71 100 85.71 85.71 85.71 71.43 71.43 71.43 71.43 57.14 85.71 57.14 85.71 42.86 100 42.86 100 28.57 85.71 28.57"/>
</svg>