
<svg xmlns="http://www.w3.org/2000/svg" viewBox="0 0 100 100">
<path class="cls-1" d="M123.5,51a50,50,0,1,0,50,50A50,50,0,0,0,123.5,51Zm22.84,39.08c0,.49,0,1,0,1.48,0,15.19-11.56,32.7-32.69,32.7h0a32.55,32.55,0,0,1-17.62-5.15,22.77,22.77,0,0,0,2.74.16,23,23,0,0,0,14.27-4.93,11.5,11.5,0,0,1-10.74-8,11.52,11.52,0,0,0,5.19-.2A11.5,11.5,0,0,1,98.31,94.9v-.15a11.51,11.51,0,0,0,5.22,1.44A11.5,11.5,0,0,1,100,80.85a32.64,32.64,0,0,0,23.68,12,11.5,11.5,0,0,1,19.58-10.48,23.05,23.05,0,0,0,7.3-2.79,11.56,11.56,0,0,1-5.05,6.36,23,23,0,0,0,6.6-1.81A23.53,23.53,0,0,1,146.34,90.08Z" transform="translate(-73.5 -51)"/>
</svg>