<?xml version="1.0" encoding="utf-8"?>
<!-- Generator: Adobe Illustrator 26.0.2, SVG Export Plug-In . SVG Version: 6.00 Build 0)  -->
<svg version="1.1" id="Layer_1" xmlns="http://www.w3.org/2000/svg" xmlns:xlink="http://www.w3.org/1999/xlink" x="0px" y="0px"
	 viewBox="0 0 602.6 468.6" style="enable-background:new 0 0 602.6 468.6;" xml:space="preserve">
<style type="text/css">
	.st0{fill:#B06F42;}
	.st1{fill:#FFFFFF;}
	.st2{fill:#BB7B4C;}
	.st3{fill:#995D36;}
	.st4{fill:#C6B3A6;}
	.st5{fill:#894E2B;}
</style>
<polygon class="st0" points="520.7,211.4 520.7,192.3 501.6,192.3 501.6,173.2 482.5,173.2 482.5,154 463.4,154 463.4,134.9 
	444.2,134.9 444.2,115.8 425.1,115.8 406,115.8 406,96.7 367.8,96.7 367.8,77.6 176.6,77.6 176.6,96.7 138.3,96.7 138.3,115.8 
	119.2,115.8 100.1,115.8 100.1,134.9 81,134.9 81,154 61.9,154 61.9,173.2 42.8,173.2 42.8,192.3 23.6,192.3 23.6,211.4 4.5,211.4 
	4.5,268.8 23.6,268.8 23.6,287.9 42.8,287.9 42.8,307 61.9,307 61.9,326.1 81,326.1 81,345.2 100.1,345.2 100.1,364.3 119.2,364.3 
	138.3,364.3 138.3,383.5 176.6,383.5 176.6,402.6 367.8,402.6 367.8,383.5 406,383.5 406,364.3 425.1,364.3 444.2,364.3 
	444.2,345.2 463.4,345.2 463.4,326.1 482.5,326.1 482.5,307 501.6,307 501.6,287.9 520.7,287.9 520.7,268.8 539.8,268.8 
	539.8,211.4 "/>
<g id="Eyes">
	<polygon points="233.9,192.3 214.8,192.3 214.8,249.6 233.9,249.6 253.1,249.6 253.1,192.3 	"/>
	<polygon points="348.6,192.3 329.5,192.3 329.5,249.6 348.6,249.6 367.8,249.6 367.8,192.3 	"/>
	<polygon class="st1" points="195.7,192.3 176.6,192.3 176.6,249.6 195.7,249.6 214.8,249.6 214.8,192.3 	"/>
	<polygon class="st1" points="310.4,192.3 291.3,192.3 291.3,249.6 310.4,249.6 329.5,249.6 329.5,192.3 	"/>
</g>
<g id="Laces">
	<rect x="214.8" y="96.7" class="st1" width="19.1" height="38.2"/>
	<rect x="272.2" y="96.7" class="st1" width="19.1" height="38.2"/>
	<rect x="329.5" y="96.7" class="st1" width="19.1" height="38.2"/>
</g>
<rect x="23.6" y="268.8" class="st2" width="19.1" height="19.1"/>
<polygon class="st2" points="23.6,211.4 4.5,211.4 4.5,268.8 23.6,268.8 23.6,230.5 42.8,230.5 42.8,192.3 23.6,192.3 "/>
<rect x="42.8" y="173.2" class="st2" width="19.1" height="19.1"/>
<rect x="61.9" y="154" class="st2" width="19.1" height="19.1"/>
<rect x="119.2" y="115.8" class="st2" width="19.1" height="19.1"/>
<polygon class="st2" points="138.3,96.7 138.3,115.8 176.6,115.8 195.7,115.8 195.7,96.7 176.6,96.7 "/>
<rect x="42.8" y="287.9" class="st2" width="19.1" height="19.1"/>
<rect x="176.6" y="77.6" class="st3" width="19.1" height="19.1"/>
<rect x="214.8" y="77.6" class="st4" width="19.1" height="19.1"/>
<rect x="272.2" y="77.6" class="st4" width="19.1" height="19.1"/>
<rect x="329.5" y="77.6" class="st4" width="19.1" height="19.1"/>
<g>
	<rect x="233.9" y="77.6" class="st5" width="38.2" height="19.1"/>
	<rect x="195.7" y="77.6" class="st5" width="19.1" height="19.1"/>
	<rect x="348.6" y="77.6" class="st5" width="19.1" height="19.1"/>
	<rect x="291.3" y="77.6" class="st5" width="38.2" height="19.1"/>
	<polygon class="st5" points="520.7,211.4 520.7,192.3 501.6,192.3 501.6,173.2 482.5,173.2 482.5,154 463.4,154 463.4,134.9 
		444.2,134.9 444.2,115.8 406,115.8 406,96.7 367.8,96.7 367.8,115.8 386.9,115.8 386.9,134.9 425.1,134.9 425.1,154 444.2,154 
		444.2,173.2 463.4,173.2 463.4,192.3 482.5,192.3 482.5,211.4 501.6,211.4 501.6,230.5 520.7,230.5 520.7,249.6 501.6,249.6 
		501.6,268.8 463.4,268.8 463.4,287.9 444.2,287.9 444.2,307 406,307 406,326.1 386.9,326.1 386.9,345.2 367.8,345.2 367.8,364.3 
		329.5,364.3 329.5,383.5 291.3,383.5 291.3,402.6 367.8,402.6 367.8,383.5 406,383.5 406,364.3 444.2,364.3 444.2,345.2 
		463.4,345.2 463.4,326.1 482.5,326.1 482.5,307 501.6,307 501.6,287.9 520.7,287.9 520.7,268.8 539.8,268.8 539.8,249.6 
		539.8,230.5 539.8,211.4 	"/>
	<polygon class="st5" points="195.7,364.3 176.6,364.3 176.6,345.2 138.3,345.2 138.3,326.1 100.1,326.1 100.1,307 61.9,307 
		61.9,326.1 81,326.1 81,345.2 100.1,345.2 100.1,364.3 138.3,364.3 138.3,383.5 176.6,383.5 176.6,402.6 214.8,402.6 214.8,383.5 
		195.7,383.5 	"/>
</g>
</svg>
